<?xml version="1.0" encoding="utf-8"?>
<!-- Generator: Adobe Illustrator 22.0.0, SVG Export Plug-In . SVG Version: 6.00 Build 0)  -->
<svg version="1.1" id="Слой_2" xmlns="http://www.w3.org/2000/svg" xmlns:xlink="http://www.w3.org/1999/xlink" x="0px" y="0px"
	 viewBox="0 0 1020 1199" style="enable-background:new 0 0 1020 1199;" xml:space="preserve">
<style type="text/css">
	.st0{fill:#FFFFFF;}
	.st1{stroke:#000000;stroke-width:2;stroke-miterlimit:10;}
	.st2{fill:none;stroke:#000000;stroke-width:2;stroke-miterlimit:10;}
	.st3{fill:none;}
	.st4{font-family:'MyriadPro-Regular';}
	.st5{font-size:28px;}
	.st6{fill:#808080;}
	.st7{fill:none;stroke:#000000;stroke-miterlimit:10;}
	.st8{fill:#E7EDE2;stroke:#000000;stroke-width:0.5;stroke-miterlimit:10;}
	.st9{fill:none;stroke:#FF0006;stroke-width:1.5;stroke-miterlimit:10;}
	.st10{fill:none;stroke:#F10C00;stroke-miterlimit:10;}
</style>
<g>
	<g>
		
			<image style="overflow:visible;" width="2774" height="2772" xlink:href="66FBE2BF08DAEC31.jpg"  transform="matrix(0.24 0 0 0.24 290.9162 280.26)">
		</image>
		<rect x="776.6" y="253.5" class="st0" width="209" height="303"/>
		<line class="st1" x1="665.8" y1="537.9" x2="700.8" y2="489.9"/>
		<line class="st2" x1="715" y1="615" x2="750" y2="567"/>
		<rect x="704.5" y="469.9" class="st3" width="207" height="44"/>
		<text transform="matrix(1 0 0 1 704.4695 489.7806)" class="st4 st5">Yosemite </text>
		<rect x="758.7" y="532.6" class="st3" width="226.8" height="34.3"/>
		<text transform="matrix(1 0 0 1 758.7195 552.5065)" class="st4 st5">Sequoia and       </text>
		<rect x="758.7" y="563.6" class="st3" width="226.8" height="34.3"/>
		<text transform="matrix(1 0 0 1 758.7195 583.5065)" class="st4 st5">Kings Canyon</text>
	</g>
	<path class="st6" d="M417.9,811.5c-1.3-0.1-2.9-0.4-4.1-0.9c-0.5-0.2-3.2-2.2-3-0.9c-1.2,0.4-2.5-0.4-3.7-0.7
		c-0.6-0.1-1.1-0.2-1.6-0.6c-0.5-0.5-0.6-0.9-1.3-1.2c-1.2-0.5-2.7-0.3-3.7-1.2c-0.6-0.5-2-2.1-1.6-2.9c0.3-0.1,1.2-0.1,1.2-0.5
		c0-0.5-0.7-0.2-0.9-0.4c0.3-0.6,1.1-1.7,0.6-2.4c-0.2-0.2-0.7-0.2-1-0.5c-0.3-0.4-0.4-1-0.7-1.4c-0.8-1.5-2.3-2.5-3.3-3.9
		c-1.2-1.5-3-1.9-4.2-3.4c-0.6-0.8-1-1-1.9-1.3c-0.7-0.2-1.9-0.4-2.2-1.2c-0.3-0.6,0.2-1.2,0.1-1.9c-0.2-0.9-0.6-0.4-1.3-0.7
		c-0.2-0.1-0.5-0.5-0.6-0.7c-0.2-0.2-0.5-0.4-0.7-0.5c-0.5-0.3-1-0.7-1.2-1.2c-0.1-0.3,0.2-0.6-0.2-0.9c-0.3-0.2-0.6,0.1-0.9,0
		c-0.6-0.2-0.9-0.8-1.2-1.2c-0.5-0.7-1.6-2.1-2.4-2.4c-0.2,0.3,0,0.7,0,1c-0.6,0.1-1.2-1.1-0.5-1.4c0-0.7-0.3-0.8-0.6-1.3
		c-0.3-0.5-0.3-1-0.5-1.5c-0.2-0.4-0.5-0.8-0.7-1.2c-0.2-0.6-0.1-1.3-0.5-1.8c-0.6-0.3-1.1-0.3-1.1-1.1c-0.4,0.1-1.5-0.1-1.8-0.3
		c-0.2-0.1-0.4-0.5-0.7-0.6c-0.3-0.2-0.6-0.1-0.9-0.4c0.2,0.9,0.2,1.7,0.3,2.5c0.1,0.5,0.3,0.7,0.4,1.1c0.1,0.4-0.1,0.8,0.1,1.3
		c0.3,0.9,0.7,1.5,1.4,2c0.7,0.5,1,1.2,1.6,1.8c0.3,0.3,0.5,0.3,0.7,0.8c0.2,0.4,0.2,0.7,0.6,1.1c0.8,0.7,1.2,1,1.5,2
		c0.3,0.9,0.8,1,1.4,1.7c0.3,0.4,0.2,0.7,0.4,1.1c0.2,0.4,0.6,0.7,0.9,1c0-0.3-0.1-0.5-0.1-0.8c0.5,0.6,0.7,1.7,1,2.4
		c0.1,0.4,0.2,0.8,0.4,1.1c0.3,0.4,0.5,0.3,0.9,0.6c0.7,0.4,0.9,1.2,0.9,1.8c0,0.8-0.1,1.5,0.8,1.9c0-0.4-0.1-0.8-0.2-1.1
		c0.4,0.1,0.6,0.5,0.9,0.8c0.3,0.2,0.8,0.2,1,0.5c0.3,0.3,0.4,0.9,0.6,1.2c0.2,0.4,0.4,1,0.6,1.3c-0.7,0.6-0.8,1.6-1.7,0.6
		c-0.4-0.4-0.4-0.8-0.7-1.2c-0.3-0.4-0.7-0.4-1.2-0.6c-0.9-0.4-1.2-1.1-1.9-1.6c-0.6-0.5-1.3-0.8-1.9-1.2c-1.1-0.7-0.7-1.1-0.7-2.1
		c-0.1-1.1-0.6-1.9-1.4-2.6c-0.3-0.3-1.4-1.4-1.8-1.4c-0.6-0.1-0.7,0.4-1.3,0.1c-0.4-0.3-0.6-0.8-1-1.1c-0.7-0.4-1.1-0.3-1.6-0.9
		c-0.4-0.5-0.7-1.2-1.3-1.4c0.6-0.5,1.3,0.3,1.9-0.2c0.5-0.5,0.2-1.8-0.2-2.3c-0.4-0.5-1.2-1-1.7-1.5c-0.4-0.4-1-1.3-1.7-1.1
		c-0.5-0.6-0.5-1.9-0.8-2.6c-0.3-0.8-0.8-1.4-1.2-2.2s-0.6-1.7-1.1-2.5c-0.4-0.6-1.6-1.1-1.2-1.9l-0.1-0.8c-0.5-0.6-0.7-1.4-1.5-2
		c-0.7-0.6-1.4-1.2-2.1-1.7c-0.7-0.5-1.7-0.6-2.4-1.1c-0.5-0.3-0.6-0.5-1.2-0.5c-0.6-0.1-1,0-1.4-0.4c-0.3-0.3-0.3-0.9-0.4-1.3
		c-0.1-0.7-0.2-0.8-0.6-1.2c-0.5-0.8-1-1.6-1.5-2.4c-0.3-0.4-0.7-0.8-0.7-1.3c0-0.2,0.3-0.3,0.3-0.6c0-0.3-0.1-0.5-0.3-0.8
		c-0.2-0.3-0.6-0.3-0.9-0.7c-0.4-0.5-0.2-1-0.3-1.6c-0.2-0.9-1-1.5-1.4-2.4c-0.3-0.9-0.8-1.7-1.1-2.6c-0.4-1-0.1-2-0.4-3.1
		c-0.1-0.4-0.6-1-0.6-1.3c0-0.5,0.5-0.8,0.7-1.3c0.2-0.8,0.5-2.1,0.4-3c-0.1-1-0.6-2-0.5-3.1c0.1-1.1,0.9-1.4,1.1-2.3
		c0.2-0.9,0.3-2,0.5-2.9c0.4-2.5,1-4.6,0.7-7.1c-0.1-1.3-0.4-2.8-0.3-4c0.1-0.8,0.2-0.8-0.4-1.4c-0.4-0.4-0.9-0.7-0.3-1.3
		c-0.6-0.4-1.1-0.4-1.5-1c-0.4-0.6-0.6-0.9-1.1-1.4c-0.6-0.5-0.9-1-1.2-1.6c-0.3-0.6-0.9-0.9-1.2-1.5c-0.4-0.8-0.5-1.3,0.5-1.3
		c0.8,0,1.1,0.3,1.7,0.8c0.6,0.5,3.7,1.3,3.2,2.2c0.4,0.4,0.6,1,0.9,1.5c0.4,0.5,0.8,0.9,1.3,1.4s0.6,1.2,1.1,1.8
		c0.2,0.2,0.6,0.5,0.6,0.8c0,0.5-0.6,0.5-0.3,1c0.7-0.2,0.6,0.9,1.1,1.2c0.5-0.6,0.1-1.7-0.2-2.4c-0.2-0.5-0.2-0.7-0.4-1
		c-0.2-0.3-0.6-0.4-0.7-0.8c-0.1-0.3,0.4-0.7,0.2-1c-0.2-0.4-0.8-0.3-1-0.5c-0.6-0.4-0.8-1-1.2-1.5c-0.4-0.5-0.8-0.9-1.3-1.3
		c-0.6-0.4-1.1-1-1.7-1.4c-1-0.6-2.9-2.1-1.9-3.5c-0.6,0-1-2.3-1-2.9c-0.1,0-0.3,0-0.5,0c0-0.3,0-0.6,0.1-0.9
		c-0.8-0.1-0.7-0.8-1-1.3c-0.3-0.5-1-0.7-0.6-1.5c-0.1,0-0.2-0.1-0.3-0.1c-0.2-0.5,0-0.9,0-1.4c0.1-0.5,0-0.7-0.1-1.2
		c-0.1-0.5,0.3-1,0.2-1.3c-0.1-0.2-0.4-0.2-0.6-0.4c-0.1-0.2-0.3-0.6-0.4-0.8c-0.2-0.4-0.4-0.9-0.5-1.3c-0.2-0.5,0-0.8-0.1-1.4
		c-0.1-0.8-0.8-1.2-0.4-2.2c-0.2,0.2-0.5,0.4-0.8,0.5c0.5,0,0.7,0.7,0.7,1.2c-0.1,0.9-0.2,0.8,0.2,1.5c0.3,0.7,0.4,1,0.2,1.7
		c-0.2,0.6-0.9,0.9-0.9,1.5c-0.3-0.3-0.2-2.2-0.8-2.1c-0.2,0-0.2,0.7-0.6,0.7c-0.5,0.1-0.6-0.6-0.5-1c0-0.8,0.3-1.7,0.4-2.6
		c0-0.6-0.2-1.7,0.5-1.9c-0.2,0.5-0.4,1.2-1,1.2c-0.2-0.7,0-3.2,0.8-3.3c-0.8-1.1-0.7,0.3-0.8,0.8c-0.1,0.8-0.5,1.1-1.4,1.1
		c-0.1-0.5,0.3-0.7,0.4-1.1c0.1-0.2,0-0.9,0-1.1c-0.1-0.8-0.6-1.5-0.9-2.2c-0.4-1,0-1.6,1-1.6c1.1,0,0.8,0.8,1.6,1.1
		c0-1.2-0.9-1.4-1.8-1.6c-0.6,1.1-1.1-0.7-1.2-1.1c-0.1-0.5-0.1-0.7-0.4-1.1c-0.2-0.3-0.6-0.3-0.8-0.6c-0.2-0.3-0.2-0.6-0.4-0.9
		c-0.2-0.3-0.4-0.5-0.7-0.8c-0.2-0.3-0.5-0.4-0.3-0.8c0.1-0.4,0.6-0.6,1-0.5c-0.3-0.5-1.8,0.2-1.9-0.8c-0.8-0.1-1.1-0.8-1.3-1.4
		c-0.4-1.1-1.1-0.6-1.7-1.3l-0.7,0.1c-0.6,0.8-0.9-1-0.9-1.3c-0.6,0.1-1.1-0.5-0.8-1c-1,0.1-0.6-1.4-1-1.9c-0.3-0.4-1.3-1.2-1.8-1.3
		c-0.2,0.6-0.6,0.6-1.2,0.7c0.4,0.7-0.4,0.9-0.3,1.6c-0.3,0.2-0.6,0.1-0.9,0c-0.5-0.1-0.7-0.5-0.9-0.6c-0.6-0.2-0.8,0.2-1.4,0.4
		s-2.9,0.6-3.2-0.4c0.3-0.1,1.1-0.1,1.4-0.3c0.4-0.3,0.4-0.7-0.2-0.7c-0.3-0.9,2.5-1.2,2.3-2.2c0.5-0.2,1,0.1,1.5,0.1
		c0.3,0,0.4-0.2,0.7-0.2c0.3,0,0.1,0.5,0.6,0.3c0-0.4-0.1-0.8-0.2-1.3c-0.4,0-0.8-0.2-1.2-0.2c-0.5,0-1,0.2-1.4,0.4
		c-0.6,0.3-1.8,1-2.3,0.8c-0.1,0.9-0.6,0.6-1.4,0.7c-0.7,0.1-1.1,0.7-1.7,0.7c-0.1-0.1-0.2-0.2-0.2-0.3c-1,0.9,0.5,1,0,1.7
		c-0.2,0.2-1,0.4-1.2,0.6c-0.5,0.3-0.7,0.6-1.3,0.4c-0.5-0.1-0.3-0.4-1-0.3c-0.5,0.1-0.8,0.2-1.3,0.2c-0.8,0-1.7-0.1-2.6,0.2
		c-0.8,0.2-1.2,0.8-2.2,0.9c-1,0.1-1.8,0-2.8,0.1c-0.3,0-1.1,0.2-1.4,0.1c-0.4-0.1-0.6-0.4-1.1-0.5c-0.3-0.1-2.6,0-1.9-0.7
		c-0.5-0.2-1.1,0.1-1.6,0c-0.3,0-0.4-0.2-0.7-0.2c-0.4,0-0.7,0.2-1,0.1c-0.2-0.1-0.3-0.3-0.5-0.4c-0.4-0.1-0.4,0.2-0.8,0.1
		c-0.3-0.1-1.3-0.8-1.4-0.9c0.9-0.1,1.3-0.5,2.2-0.2c0.9,0.3,1.1,0.8,2.1,0.6c0.8-0.2,1.4-0.6,2.3-0.5c0.9,0.1,1.4,0.6,1.6,1.4
		c0.7-0.1,1.2-0.7,2.1-0.7c0.7,0,2.1-0.2,2.5,0.5c0.3-0.8,2.1-1,2.8-0.9c0-0.1,0-0.2,0-0.4c0.4-0.2,0.5-0.5,0.8-0.7
		c0.4-0.3,0.7-0.4,1.2-0.5c-0.1-0.1-0.1-0.3-0.2-0.5c0.5-0.1,1.5-0.8,1.5-1.2c-0.7,0-1.3,0.3-1.9,0c-1-0.5-0.1-0.8-0.2-1.5
		c-0.5,0-0.9,0.4-1.3,0.7c-0.1-0.3-0.1-0.6-0.2-0.9c0.1,0,0.1-0.1,0.2-0.1c0-0.1-0.1-0.2-0.2-0.3c-0.9,0.1-0.5-0.8-0.3-1.3
		c-0.4-0.2-0.9-0.2-1.3,0c0,0.6-0.7,0.6-1.1,0.3c-0.5-0.3-0.5-0.9-0.6-1.4c0.4-0.1,0.8-0.1,1.1-0.2c-0.1-0.7,0.3-1,0.7-1.3
		c0.3-0.2,0.5,0,0.7-0.4c0.1-0.2,0-0.8,0-1c0.3-0.3,0.4-0.7,0.9-0.7c0-0.1,0-0.5,0-0.5c-0.9,0.2-2.4,0.5-2.8-0.6
		c-0.2-0.7,0.3-1,0.5-1.6c0.2-0.6-0.3-0.9-0.2-1.5c0.3-0.2,0.5-0.6,0.9-0.7c0.3,0.4,0.9,1.3,1.3,1.6c-0.1-0.6-1-1-1.1-1.6
		c-0.1-0.7,0.4-1.1,1-1c-0.3,0.1-1.1,0.2-1.2-0.3c-0.1-0.4,0.8-0.9,1-1.1c0.2-0.2,0.6-0.7,0.8-0.8c0.5-0.2,0.7,0.2,1.3-0.1
		c0.6-0.3,0.3-0.6,1-0.5c0.2,0,0.2,0.4,0.4,0.4c0.2,0,0.3-0.4,0.4-0.5c0.4-0.3,0.6-0.6,1.1-0.4c0.7,0.3,0.1,0.8,0.4,1.1
		c0.4,0.5,0.8,0,1.3-0.1c0.7-0.1,0.6,0,1.1,0.5c1,0.9,1.4,0.6,2.2-0.3c0.1-0.1,0.3-0.2,0.4-0.4c0.2-0.3,0.2-0.4,0.3-0.7
		c0.1-0.3-0.1-0.3,0.2-0.5c0.2-0.2,0.5,0.1,0.8,0c0.2-0.1,0.7-0.9,0.6-1.2c-0.2-0.3-1.3-0.1-1.6-0.1c-0.7,0-1.1,0.4-1.6-0.1
		c-0.1-0.1-0.4-0.6-0.5-0.8c-0.2-0.3-0.4-0.6-0.6-0.8c-0.6-0.5-1.1-0.6-1-1.5c0.1-0.9,0.6-1.5,1.4-1.6c0.1-0.8-1.2-1.8,0-2.4
		c0.7-0.4,1.8,0.5,2.5,0.6c0.9,0.1,1.5,0.2,2.2,0.8c0.3,0.2,0.7,0.5,0.6,0.8c-0.1,0.4-1,0.4-1.3,0.3c0.2,0.5,0.7,1.1,1,1.5
		c0.2,0.2,0.4,0.6,0.6,0.7c0.2,0.1,0.5-0.5,0.9,0.1c-0.2-0.9,1-0.6,1.3-0.1c-0.4-0.6-2.1-1.7-0.5-2.1c0-0.5-0.7-1-0.9-1.4
		c-0.4-1,0.3-0.8,0.6-1.7c0.2-0.5,0.2-1.3,0.2-1.9c0-0.6-0.2-1.4,0-1.9c0.2-0.1,0.6-0.1,0.7-0.1c0.2-0.1,0.4-0.3,0.6-0.5
		c0.6-0.3,0.4-0.4,0.9,0.1c0.5,0.5,0.4,0.7,1.1,0.9c0.6,0.1,1.1-0.1,1.6-0.3c0.8-0.4,1.8-1.1,2.7-0.7c0.6,0.3,0.5,0.6,1.2,0.6
		c0.5,0,1.4-0.9,1.6-0.2c0.1,0,0.6-0.1,0.6-0.1c0.2,0.1,0.4,0.4,0.6,0.5c0.4,0.2,0.8,0.1,1.4,0c0.3-0.1,1-0.5,1.3-0.3
		c0.4,0.3,0.1,1.1,0.1,1.5c-0.2-0.1-0.3,0-0.5,0c0,0.1,0,0.2,0.1,0.4c0.3,0,0.6-0.1,0.9-0.1c0.1,0.3,0,0.9,0.1,1.2
		c0.3,0.6,0.4,0.2,0.9,0.4c0.6,0.2,1.4,1.4,0.1,1.3c0.1,1,1.2,1.2,1.9,1.8c0.5,0.4,0.5,0.9,0.8,1.3c0.2,0.3,0.6,0.5,1,0.7
		c0.8,0.5,1.2,1.3,1.9,1.8c0.4,0.3,0.8,0.2,1.1,0.5c0.4,0.2,0.5,0.8,0.7,1.2c0.4,0.8,1,1.4,1.7,1.9c0.3,0.3,0.7,0.4,1,0.7
		c0.3,0.4,0.3,0.9,0.6,1.3c0.2,0.3,0.6,0.4,0.9,0.7c0.2,0.1,0.4,0.2,0.6,0.3c0.2,0.1,0.1,0.5,0.4,0.5c0.5,0.2,0.4-0.2,0.6-0.6
		c0.4-0.7,0.4-0.7,1.2-0.7c1.2-0.1,2.1,0.1,3.1-0.2c0.6-0.1,2.9-0.8,3-0.5c-0.4,0.5-1.3,1.3-2,1.4c0.4,0.2,1.1-0.2,1.7-0.2
		c0.6,0,0.9,0.1,1.6-0.2c0-0.7,0.3-1.3,0.1-2c1.4-0.3,0.2,5.1,2.1,4.1c0.2-1,0.5-1.4,1.2-1.9c0.1,0.6-0.3,1.1,0,1.7
		c0.1,0,0.1,0,0.2,0c0,0.1,0,0.4,0,0.5c0.9,0,1.4-0.6,2.3-0.6c1-0.1,1.5,0.3,1.9,1.2l1.5,0.8c0.2,0.3,1.5,0.8,1.9,0.9
		c0.6,0.1,1.2-0.3,2,0c0.4,0.2,1.4,1.1,1.2,1.6c-0.1,0.3-1.3,1.1-1.6,1.1c-0.2,1.6,2.7,0.9,3.6,0.8c0.7,0,1.2,0.1,1.8,0.1
		c0.7-0.1,1.1-0.5,1.9-0.6c0.2,0.2,0.2,0.7,0.4,0.9c0.3,0.2,0.9-0.1,1.2-0.1c-0.1-0.7,0.4-1,1-1.1c0-0.1,0-0.3-0.1-0.5
		c-0.7-0.1-1.1,0.2-1.8,0.3c-0.7-0.6,0.6-1.2,1-1.5c0.6-0.4,1.2-1.1,1.9-1.2c1.5-0.1,0.2,0.9,0.4,1.4c0.1,0.2,0.8,0.2,1,0.4
		c0.3,0.2,0.3,0.5,0.7,0.6c0.7,0.2,1.3-0.4,1.9-0.2c0.2,0.1,0.3,0.4,0.6,0.5c0.5,0.2,0.6-0.1,1-0.2c1.5-0.4,2.7,0.5,4.1-0.5
		c-0.2-0.1-0.8-0.1-1-0.3c-0.4-0.4-0.2-0.2,0-0.6c0.3-0.4,1.2-0.9,1.5-1c0.4,0.4,0.9,0.1,1.4,0.3c-0.5-0.1-0.9-0.6-1.4-0.7
		c-0.5-0.2-1.1,0.1-1.7-0.1c-0.4-0.2-1.1-0.8-1.4-1.2c-0.4-0.6-0.3-1,0.2-1.6c1.1-1,2.1-0.2,3.1,0.6c0.6,0.5,1.9,2.5,0.1,1.9
		c0.2,0.3,0.5,0.7,0.7,0.9c0.4,0.5,0.4,0.4,0.5,1c0,0.5-0.2,0.8,0.3,1.3c0.3,0.3,0.8,0.4,1.2,0.3c0.4-1.1-1.1-1.1-1-2
		c0.7-0.5,1.3-0.5,1.4-1.6c0.1-0.3,0.1-1.1-0.2-1.3c-0.5-0.5-1,0.1-1.4,0.2c0.1-0.7,0.8-1.1,0.2-1.7c-0.6-0.5-1.6-0.7-2.2-1.2
		c-0.4-0.3-0.5-0.5-0.7-0.9c-0.1-0.3,0.3-0.3,0.2-0.5c0-0.1-0.4-0.2-0.5-0.3c-0.5-0.7-0.7-1.6-0.1-2.4c0.2,0.1,0.3,0,0.5,0
		c-0.1-0.3-0.3-0.5-0.4-0.8c-0.1-0.5,0.2-0.6,0.2-1.1c0-0.7-0.6-1.4-0.9-2.1c-0.5-1.3-1.3-3.4,0.2-4.1c0.6-0.3,1.4-0.4,2.1-0.5
		c0.8-0.2,1.4-0.2,1.4,0.7c0,0.4-0.2,0.8-0.3,1.1c-0.1,0.5,0,0.9-0.1,1.3c-0.1,0.9-0.7,1.2-1.5,1.1c0,0.5,0.3,0.8,0.3,1.3
		c0,0.4-0.4,0.7-0.2,1.1c0.1,0.3,0.7,0.5,0.9,0.8c0.3,0.3,0.5,0.6,0.7,0.9c0.4,0.7,1.1,1.4,1.7,2.1c0.2,0.2,0.8,0.7,0.8,1.1
		c0,0.5-0.7,0.6-0.4,1.2c1-0.1,2.5-0.2,2.3,0.9c-0.1,0.7-0.5,0.5,0.1,1.2c0.4,0.4,0.9,0.8,1.3,1.2c-0.1-0.6-0.4-1.4-0.4-2
		c0.1-1.2,0.6-0.7,1.3-0.2c0.5,0.3,1,0.4,1.2,1c0.2,0.8-0.4,1.1,0.3,1.8c0.5,0.6,2.2,2.6,2.3,0.7c0-0.7-0.4-0.7-0.8-1.3
		c-0.3-0.5-0.3-1.4,0.6-1.3c0,0.1,0.1,0.2,0.1,0.3c0.2-0.4-0.2-1-0.2-1.6c0-0.2,0.1-0.5,0.1-0.7c0-0.5,0.2-0.1-0.1-0.5
		c-0.3-0.5-0.6-0.4-0.7-1.1c-0.1-0.5-0.1-1-0.2-1.5c0.2,0,0.5-0.2,0.7-0.2c-0.2-1.1-1.6-0.1-2,0c-0.5,0-0.7-0.6-1-0.7
		c-0.5-0.1-0.8,0.3-1.2,0.4c-0.4,0.1-2-0.4-2.1-0.9c-0.4-1.1,1.7-0.3,2-0.8c-0.9-0.7-1.5-0.1-2.4-0.3c-0.5-0.1-0.6-0.6-0.9-1
		c-0.2-0.4-0.5-0.8-0.7-1.2c-0.4-0.7,0-1.6,0.1-2.4c0.1-0.8,0.3-1.8,0.6-2.6c0.3-0.7,1-2,1.6-1c0.5,0.7-0.4,1.9,0,2.9
		c0.3,0.9,1,1.7,1.6,2.4c0.6,0.6,1,1.5,2,1.1c-0.1-0.5-0.9-0.3-1.3-0.7c-0.3-0.3-0.4-0.8-0.6-1.2c0.1,0,0.4-0.2,0.5-0.2
		c-1.9,0.3-1.6-2.7-0.8-3.6c0.3-0.3,1-1.5,1.3-1.5c0.4-0.1,1.8,1.1,1.3-0.3c0.8-0.2,1.3-0.9,2.3-1c0.7,0,1.9-0.1,2.1,0.7
		c0.2,0.8-0.8,1.4-1.4,1.7c-0.9,0.4-1.4-0.3-2.3-0.3c0,0.5,0.1,0.7,0.4,1c0.3,0.3,0.5,0.2,0.7,0.8c0.1,0.3-0.2,0.6-0.1,0.9
		c0.1,0.2,0.6,0.6,0.7,0.7c-0.3-0.9,0.7-0.8,1.3-1c-0.1-0.1-0.1-0.2-0.2-0.3c0.2,0,0.5,0,0.8,0.1c-0.2-0.3-0.6-0.7-0.7-1
		c-0.1-0.7,0.3-0.6,0.4-1.1c0.4-0.1,0.9-0.3,1.4-0.1c0,0.1,0.1,0.1,0.1,0.2c0.5,0,0.9-0.1,1.4-0.1c0.3,0.6-0.3,0.9-0.1,1.5
		c0.5-0.8,0.4-0.9,1.2-1.2c0.1,0.2,0.2,0.3,0.3,0.4c0.5,0,1.1-0.3,1.4,0.1c0.4-0.5,1.2-0.2,1.7-0.3c0.4,0,0.4-0.3,0.8,0
		c0.2,0.2,0.3,0.5,0.4,0.7c0.3-0.1,0.4-0.5,0.7-0.7c0.5-0.2,0.5,0,0.9,0c0.4,0,0.9-0.2,1.1,0.2c0.2,0.3-0.1,0.7-0.1,1.1
		c0.2-0.2,0.5-0.6,0.7-0.7c0.5,0.2,1.1-0.2,1.7,0.2c0.5,0.4,0.3,1.2-0.4,1.3c0.7-0.1,1.6-0.3,2.1,0.3c0.9,1-0.5,1-1.2,1.2
		c-0.1,1.4,2.2,1.1,2.8,1.1c0.3,0,0.6-0.1,0.9-0.1c0.2,0,0.5,0.3,0.7,0.3c0.5,0,1.1-0.5,1.7-0.1l1.3-0.1c0.2-0.2,0.4-0.2,0.8-0.2
		c0-0.1,0-0.1,0-0.2c0.9,0,1.5-0.7,2.5-0.2c0.5,0.2,0.7,0.5,0.8,1c0.1,0.4-0.3,1.2,0.6,1.1c0.4,0.5,0.1,0.9,0.1,1.4
		c0.1,0.5,0.7,1.2-0.1,1.4c0,0.7,0.9,0.4,0.8,1.1c-0.5,0.2-1.6-0.1-2.1-0.1c-0.7-0.1-1.2-0.4-1.6-1c-0.5,0.1-1,0.2-1.5,0.1
		c-0.5,0-1-0.3-1.5,0c0.4,0.5,0.9,0.6,1.1,1.3c-0.5,0.6-0.9-0.3-1.4,0c0,0.5,1.4,0.9,1.9,1.3c0.7,0.5,1.7,0.9,2.4,0.4
		c0.1,0.2,1.2,0.2,1.6,0.1c0.2,0.2,0.1,0.2,0.4,0.3c0,0.1,0.1,0.3,0.1,0.5c0.3-0.1,0.5-0.3,0.8-0.4c0.3,0.3,0.3,0.7,0.1,1
		c0.3-0.3,0.6-0.7,1-0.7c0.1,0.5,0.8,1,0.5,1.4c0.1,0.1,0.3,0.3,0.4,0.3c-0.1,0-0.2,0.1-0.3,0.1c0.1,0.5,0.6,0.5,0.8,0.9
		c-0.1,0-0.1,0.1-0.2,0.1c0.3,0.3,0.8,0.4,1,0.7c-0.3,0-0.6-0.1-0.9-0.1c-0.4,0.1-0.6,0.3-0.9,0.4c-0.4,0.1-0.7,0-1.1,0
		c-0.6,0-0.6,0-1.2-0.2c-0.5-0.2-0.8-0.1-1.2-0.3c0.1,0.1,0.1,0.2,0.3,0.2c-0.4,0.3-1.1,0.3-1.6,0.4c-0.2,1.1,2.7,1.2,3.3,1.1
		c0.8-0.1,3.4,0.3,3.4,1.5c-0.7,0.1-1.5,0.3-2.2,0.4c-0.7,0.1-1.3,0.2-1.9,0.5c-0.4,0.2-0.5,0.3-1,0.2c-0.2-0.1-0.4-0.5-0.7-0.5
		c-0.4,0.1-0.4,0.6-0.8,0.7c-0.3,0.1-0.7-0.2-0.9-0.2c-0.2,0.2-1.2,0.3-1.5,0.4c-0.2-0.3-0.8-0.6-0.2-0.9c0-0.1,0-0.2-0.1-0.3
		c-0.6,0.1-1.3-0.2-1.8,0.1c-0.1-0.3-0.2-0.4-0.5-0.5c-0.1-0.1-0.3,0.3-0.5,0.2c-0.1,0-0.4-0.4-0.5-0.4c-0.1,0.1-0.1,0.1-0.2,0.2
		c-0.6-0.9-0.9-0.3-1.7-0.6c-0.1,0.2-0.1,0.6-0.2,0.8c-0.1,0.2-0.4,0.2-0.5,0.3c-0.1,0.1,0.1,0.6,0,0.7c-0.2,0.3-0.3,0.1-0.5,0.2
		c0,0-0.4,0.1-0.5,0.2c-0.1,0.1-0.2,0.4-0.3,0.4c-0.4,0.3-1,0.5-1.6,0.5c-1.4,0-1-1.2-1.2-2.2c-0.1-0.5-0.5-0.8,0.1-1.1
		c0.3-0.2,1.1,0.1,1.6-0.1c0.7-0.3,1.1-1.2,1.7-1.6c0.3-0.2,0.9-0.3,0.6-0.9c-0.2-0.5-0.8-0.2-1.2-0.3c-0.9-0.3-0.7-1.7-0.6-2.5
		c0-0.5,0.2-1,0-1.4c-0.2-0.5-0.7-0.7-0.3-1.2c-0.3-0.2-0.8-0.1-1.1-0.4c-0.4-0.3-0.6-0.7-1-0.9c-0.7-0.3-1.5-0.7-2.2-1
		c-0.4-0.1-0.8-0.3-1.1-0.1c-0.3,0.1-0.3,0.9-0.6,1.1c-0.3,0.2-0.7,0.3-0.7-0.5c0-0.5,0.6-0.6,0.6-1.1c-0.7,0.1-2.2-0.1-2.4-0.9
		c-0.2,1.1-0.9,0-1.2-0.2s-1.5-0.7-1.9-0.6c-0.5,1.4,1.5,0.4,1.5,1.6c0,0.9-2,0.6-2.6,0.8c0.2,0.3,1.3,0.4,0.8,0.9
		c-0.4,0.4-1.2-0.3-1.7,0c0.1,0.1,0.1,0.2,0.2,0.3c-0.4,0.2-2.5,0.1-1.3,0.9c0.6,0.4,2.5-0.6,2.1,0.9c1.2-0.3,1.4,1.3,1.5,2.1
		c-0.1,0-0.2,0.1-0.3,0.1c0.6,0.5,1,1.1,1.5,1.7c0.5,0.7,1.3,1,1,2c-0.1,0.4-0.4,0.6-0.5,0.8c-0.2,0.4,0,0.7-0.1,1.2
		c-0.3,1.1-1.4,0-2-0.3c0.1,0.5,0.5,0.4,0.9,0.6c0.5,0.4,0.4,0.4,0.4,1.1c-0.7,0.2-1.7-0.3-2.3-0.5c-0.5-0.1-0.5-0.3-0.9,0.1
		c-0.3,0.2-0.4,0.8-0.3,1.1c1,0.1,1.2,0.5,0.9,1.4c-0.1,0.2-0.3,0.5-0.4,0.8c-0.1,0.4-0.1,0.7-0.4,1c-0.4-0.3-1.3-0.4-1.8-0.5
		c-0.9-0.2-1.2,0.1-0.2,0.5c0.6,0.2,1.6-0.1,2.1,0.2c0.5,0.3,0.2,0.4,0.3,0.8c0,0.4,0,0.5,0.1,0.9c0.2,0.9,0,1.3-0.6,1.8
		c-0.5,0.3-1.3,0.5-1.5,0.9c-0.5,0.8,0.6,1.5,0.3,2.1c-0.3,0.5-1.3-0.1-1.8-0.2c0.2,0.5,1.6,1.1,1.5,1.7c-0.1,0.4-0.6,0.5-0.8,0.7
		c-0.3,0.3-0.3,0.7-0.8,0.8c0.2,0.9-0.5,1.5-0.7,2.2c-0.2,0.8-0.5,1.7-0.6,2.6c-0.1,0.9-0.1,1.7-0.1,2.7c0,0.8-0.2,2.1,0.1,2.9
		c0.2,0.4,0.7,0.6,0.9,1c0.2,0.4,0,1.1,0.6,1.1c0.3,0,0.7-0.7,1.1-0.7c0.4,0,0.9,0.5,1.1,0.8c0.5,0.7,0.7,1.7,1.2,2.4
		c0.5,0.8,1,1.4,0.7,2.4c0.6-0.8,0.9-1.6,1.9-1.9c1.1-0.3,1.9-0.6,3.1-0.3c0.5,0.1,0.7,0.3,1.3,0.3c0.6-0.1,0.9-0.2,1.4,0
		c0.8,0.3,1.5,0.8,2.3,1c0.4,0.1,0.9,0.3,1.4,0.4c0.5,0.1,0.9,0.1,1.5,0.2c0.4,0,0.7,0.3,1.1,0.4c0.5,0.1,1.1-0.1,1.5-0.2
		c0.8-0.2,2-0.8,3-0.8c1.3,0.1,1,1.5,1.4,2.4c0.4,1,1.2,1.4,1.5,2.5c0.4,1.4,1.2,1.1,2.1,1.9c0.4,0.4,0.5,0.7,0.9,0.9
		c0.4,0.2,1.1,0.1,1.5,0.3c0.4,0.2,0.5,0.7,1,0.9c0.6,0.2,1-0.2,1.5-0.2c-0.3-0.5-0.3-1-0.4-1.6c0.5-0.2,1,0.4,1.4,0.6
		c0-0.5-0.1-1-0.2-1.5c-0.1-0.5-0.1-1-0.3-1.5c-0.3-0.7-1.1-1.2-1.6-1.7c-0.7-0.7-0.9-1.6-1.4-2.4c-0.5-0.8-1.7-0.7-2.2-1.6
		c-0.3-0.6,0-0.9,0.3-1.2c0.4-0.4,0.6-0.6,0.9-1.2c0.5-0.9,0.8-1.6,0.8-2.7c0-1.1,0.2-2-0.2-3c-0.4-0.9-0.8-1.3-1.6-1.9
		c-1.1-0.8-2.6-2-4-1.7c0-0.1-0.1-0.1-0.1-0.2c-0.1,0.1-0.2,0.1-0.4,0.1c-0.4-0.4,0.2-1,0.2-1.5c0.1-0.7-0.5-1.4,0.2-1.8
		c-0.1-0.1-0.3-0.2-0.4-0.3c0.3-0.3,0.2-1.4,0-1.7c-0.5-0.1-1.1-0.2-1.6-0.3c0-0.2-0.1-0.4,0-0.6c-0.3,0.3-0.7,0.4-1.1,0.4
		c-0.3-1,0.6-2.1-0.4-2.8c-0.2-0.1-0.5-0.1-0.7-0.2c-0.1-0.1-0.3-0.4-0.4-0.5c-0.5-0.4-0.9-0.4-0.9-1.1c0.2-1.6,1.8-0.8,2.8-1.1
		c0.9-0.3,1.3-1.8,2.5-1.1c-0.2-1,1.5-1.3,2.2-1.1c0.2,0.1,0.4,0.2,0.6,0.3c0.2,0.1,0.5-0.1,0.7,0c0.5,0.1,0.9,0.4,1,0.9
		c0.7-0.1,1.4-0.3,2.2-0.4c0.2,0,0.8,0.1,0.8,0.1c0.5-0.1,0.5-0.4,0.9-0.5c0.2,0.7-0.2,1.5,0,2.1c0.2-0.2,0.4-0.4,0.7-0.3
		c0.2,0.7,0.2,1.4-0.3,1.9c0.2-0.4,0.9-0.8,1.3-0.4c0.3,0.3,0,1.2,0.4,1.5c0.3,0.3,1-0.2,1.4,0.1c0.3,0.3,0.2,1.2,0,1.4
		c0.1-1.2,0.4-1.2,1.4-1.2c1,0.1,1.6-0.2,1.8,1.1c0.1-0.3,0.1-0.6,0-0.9c0.3-0.1,0.7-0.1,1-0.2c-0.1-0.5,0.2-0.9,0.2-1.3
		c0-0.4-0.3-1.4,0.6-1.1c-0.6-0.4-0.3-1.3-0.4-1.8c-0.2-0.6-0.9-0.9-0.4-1.7c-0.5-0.3-1-1.6-1-2.2c0.6-0.2,0.8,0.6,1.2,0.8
		c0.7,0.4,0.4-0.1,0.9,0c0.2,0,0.4,0.4,0.5,0.5c0.1-0.1,0.2-0.2,0.2-0.2c0.2,0.2,0.3,0.3,0.2,0.6c0.5-0.1,0.9,0.3,1.2,0.7
		c0.2-0.5,0.7-0.5,0.8,0c0.7-0.3,1,0.4,0.8,1c0.7-0.2,0.8,0.1,1,0.6c0.3-0.3,0.7-0.6,1.2-0.5c0.2,0.5,0.7,0.2,1.1,0.1
		c0.2,0.3,0.4,0.5,0.5,0.9c0.1-0.1,0.4-0.1,0.6-0.2c0,0.2,0.2,0.5,0.2,0.7c0.4,0.1,0.8-0.1,1.2,0.1c-0.3,0.4-0.7,1.1,0.1,1.3
		c-0.1,0-0.3,0.1-0.5,0.1c0.1,0.5,1,0.4,1.5,0.3c0.1,0.3,0,0.7,0.1,1c0.4,0,0.6-0.3,0.9-0.4c0,0.1,0,0.1,0.1,0.2
		c0.2-0.2,0.4-0.4,0.6-0.6c0,0.2,0.1,0.4,0,0.6c0.1-0.1,0.3-0.1,0.5-0.2c0.1,0.1,0.2,0.2,0.2,0.3c0.1,0,0.4,0,0.6-0.1
		c0.1,0.3,0.2,0.5,0.3,0.8c-0.1-0.3-0.1-0.6,0-0.9c0.5,0,0.6,0.6,0.7,1c0.1-0.5,0.5-1,0.7-1.5c0.3,0.1,0.4,0.5,0.4,0.8
		c0.1-0.4,0.4-0.8,0.7-1c0.1,0.2,0.2,0.2,0.3,0.5c0.3-0.4,1.1-0.8,1.1,0c0.2-0.4,0.4-0.8,0.8-0.7c0.1-0.4,0.5-0.5,0.8-0.5
		c0.5,0.9-0.7,2.3-0.9,3c-0.2,0.7-0.7,2.8-0.2,3.3c0.3-1.4,1-2.7,1.3-4c0.1-0.5,0.2-1,0.6-1.3c1-0.7,0.5,0.5,1.1,0.7
		c0-0.3,0-0.6,0.2-0.8c0.2,0.4,0.1,0.8,0,1.1c0.1,0,0.5,0,0.6-0.1c-0.1-0.4-0.1-0.8-0.2-1.2c0.6,0.7,1.3-0.3,1.8,0.4
		c0.4-0.5,0.7,0.1,0.7,0.4c0.1-0.1,0.1-0.1,0.2-0.2c0.1,0.4,0,0.9-0.1,1.3c0.7-0.5,1.6-0.5,1.8,0.5c-0.2,0.1-0.2,0.2-0.4,0.2
		c0.4,0.3,1,0.2,1,0.8c0,0.2-0.6,1-0.6,1.3l0.2,0.6c0.1,0.4-0.1,0.8-0.4,1c-0.6,0.5-0.7,0-0.8,0.9c-0.1,0.9-0.5,1.7-0.5,2.6
		c0.1,0.8,0.4,2.1-0.1,2.9c-0.5,0.9-1.7,1-2.4,1.7c-0.3,0.3-0.4,0.8-0.7,1.1c-0.3,0.3-0.8,0.5-1.2,0.7c-1,0.5-1.6,1-2.5,1.7
		c-0.7,0.6-1.6,0.8-2.2,1.5c-0.6,0.7-1,1.8-1.1,2.7c0,0.6,0.1,1.1-0.1,1.7c-0.2,0.4-0.5,0.8-0.7,1.2c-0.4,0.9-0.5,1.9-0.6,2.9
		c0,1.2,0.1,2.4,0,3.6c0,0.5,0.1,1.1,0,1.6c0,0.6-0.3,0.9-0.5,1.5c0.2-0.3,0.5-0.6,0.7-0.9c0.3-0.6,0.3-1,0.4-1.6
		c0.1-0.9,0.3-1.9,0.6-2.9c0.2-0.9,0.9-1.7,1.2-2.6c0.3-1,0.1-1.6,0.9-2.5c1.4-1.3,1.8-3.8,4.4-3.1c0.6,0.1,0.8,0.2,0.7,0.9
		c0,0.2-0.2,0.3-0.2,0.5c-0.1,0.2,0.1,0.6,0,0.8c-0.1,0.5-0.6,0.9-0.8,1.2c-0.1,0.1-0.2,0.4-0.4,0.5c-0.2,0.1-0.7,0-0.9,0.2
		c-0.2,0.2-0.1,0.6,0,0.9c0.5,0,1.6-0.8,1.7,0.1c0.2-0.4,0.6-2.6,1.5-2.1c0.6,0.4,0,0.9-0.1,1.1c-0.1,0.4,0,0.8,0.3,1.1
		c-0.1,0.2,0,0.2,0,0.4c0.4-0.1,0.8-0.2,1.2,0c0.4,0.2,0.3,0.7,0.6,0.9c0.5,0.5,1.8,0.5,2.5,0.6c0-0.2,0.1-0.4,0.1-0.6
		c0.2,0.1,0.5,0.2,0.6,0.3c-0.5-0.1-0.6-0.6-0.9-0.8c-0.4-0.2-1.1,0.1-1.5-0.1c-1.2-0.8,1.1-2,1.3-0.9c0.1,0,0.3,0.1,0.4,0.1
		c0.1-0.9,2-1,2.5-1.4c0,0.4-0.1,0.9-0.4,1.1c-0.1,1.3-0.7,0.5-1.5,0.6c-0.1,0.3-0.1,0.3-0.3,0.4c0.1,0.7-0.2,1,0.7,0.9
		c0.4,0,1-0.2,1.3-0.5c0.3-0.2,1.5-2.4,1.8-1.2c1.1-0.4-0.4-1.7-0.4-2.3c0-0.4,0.4-0.9,0.4-1.4c-0.1-0.5-0.5-0.8-0.5-1.4
		c1.1-0.2,1.2,1.1,1.4,1.8c0.5-0.1,0.8-1.1,1.3-0.8c0.3,0.2,0.3,1.7,0.2,2c-0.1,0.3-0.1,0.5-0.2,0.7c-0.1,0.2-0.6,0.5-0.7,0.7
		c-0.4,1.1,0.6,0.4,1,0.2c0.1,0.7-1.5,2.6-1.9,3.2c-0.3,0.6-1.4,3.2-2.3,2.8c0.1,1.4,0.1,3.5-0.4,4.8c-0.5,0.2-0.7,0-1.2-0.1
		c-0.1,0-0.3-0.1-0.4-0.1c-0.1,0-0.4,0.3-0.7,0.2c-0.8-0.3-0.5-2.1-0.4-2.7c0.1-0.5,0.2-1,0.4-1.4c0.1-0.4,0.2-1.2,0.5-1.5
		c0.1-0.2,0.4-0.2,0.5-0.3c0.1-0.1,0.3-0.4,0.3-0.4c0.3-0.3,0.5-0.5,0.8-0.6c-0.7,0.6-1.7,1-2.3,1.7c-0.2-0.6,0.4-1.4,0.4-2
		c-0.5,0.1-0.4,0.8-0.7,1.2c-0.3,0.5-0.8,0.7-1.1,1.1c-0.2,0.3-0.2,0.7-0.4,1c-0.2,0.3-0.6,0.5-0.7,0.8c-0.4,0.7-0.2,1.7-0.5,2.6
		c-0.3,0.6-1.5,1.4-1.3,2.1c-0.2,0-0.4,0.2-0.6,0.1c0.1,0.3,0.1,0.6,0,0.9c-0.1,0-0.1-0.1-0.2-0.1c0,0.4,0,1-0.5,1.1
		c0,0.7-0.5,0.9-0.7,1.5c-0.1,0.4-0.1,0.6-0.1,0.9c0,0.3-0.2,0.6-0.2,0.9c-0.1,0.7,0.3,1.1,0.6,1.7c0.3,0.6,0.3,0.7,0,1.5
		c0.2,0,0.7-0.2,1-0.2c0.5,0.1,0.4,0.6,0.7,0.7c0.7,0.2,1-0.4,1.3-0.9c0.1,0.8,0.3,2.5-1.1,2.1c0.4,0.9-0.5,0.9-1,1.2
		c-0.6,0.3-0.6,0.7-1,1.2c-0.4,0.6-1,0.8-1.5,1.2c-0.5,0.4-0.8,0.9-0.9,1.5c0.4-1,1.4-2.2,2.6-2c-0.8,0.2-0.7,2.2-1.3,2.7
		c-0.7,0.5-2.4,0-1.5,1.2c0.3,0.5,0.6,0.5,0.7,1.1c0.1,0.5,0,0.9,0.1,1.4c0.1,1.3,0,1.8-0.7,2.7c-0.1-0.3-0.1-0.7-0.2-1
		c-0.5,0-1,0.2-1.5,0.2c0.6,0.2,1,0.8,1.4,1.2c0.5,0.5,0.7,0.6,0.6,1.5c-0.1,1.3,0.4,2.8-0.2,4c-0.4-0.4-0.3-1.4-0.5-2
		c-0.1,0-0.3,0-0.5,0c0-0.2-0.1-0.5,0-0.7c-0.5,0.1-1.3-2-1.5-2.5c-0.4,0.4-0.7-0.1-0.9-0.5c0.1,0.5,0.2,1.1,0.3,1.6
		c0.4,0,0.2,0.1,0.4,0.3c-0.1,0-0.1,0-0.2,0.1c0.3,0.3,0.8,0.5,0.9,1c-0.7,0.2-0.1,0.5,0,0.7c0.1,0.1,0,0.4,0.1,0.5
		c0.2,0.1,0.5-0.1,0.6,0.1c0.2,0.2,0.2,0.6,0.2,0.8c0,0.3,0.3,0.3,0.1,0.7c0.3,0.1,0.6,0.2,0.9,0.3c0,0.1,0.1,0.2,0.1,0.3
		c0.6-0.1,0.6,0.3,0.8,0.7c0.3,0.6,0.5,0.5,1,0.9c0.3,0.3,0.3,0.7,0.5,1c0.3,0.5,0.8,0.4,0.7,1.2c-0.1,0.9-1,1-1.4,1.8
		c-0.3,0.5-0.6,1.8-1.1,1.8l-0.1,0.9c-0.6,0.6-0.5,1.4-0.4,2.2c-1,0.5-1.8,0.5-2.1,1.8c-0.2,1,0,1.7-0.6,2.6c-0.5,0.7-1,1.4-1.5,2.1
		c-0.6,0.8-0.6,1.7-0.8,2.6c-0.2,1-0.3,2,0.1,2.9c0.4,0.9,1,1.6,1.6,2.5c0.6,0.9,1.2,1.8,1.9,2.6c0.5,0.6,1.1,1.1,1.7,1.8
		c1.2,1.5,2.6,2.9,3.2,4.7c0.4,1.2,1,5-1.4,4.3c-0.5-0.1-0.6-0.6-1-0.9c-0.4-0.2-0.7-0.1-1.2-0.3c-0.4-0.2-0.6-0.6-0.8-0.9
		c-0.4-0.4-0.6-0.4-1.2-0.6c-0.5-0.2-0.6-0.5-0.9-0.8c-0.3-0.2-0.7-0.4-0.9-0.7c-0.3-0.4-0.1-1.2-0.3-1.5c-0.4-0.5-0.8,0.1-1.3,0.1
		c-0.4-0.9,0.2-1.7-0.3-2.6c-0.4-0.8-1-0.9-1.7-1.3c-0.6-0.4-1-0.9-1.8-1.2c-0.8-0.2-1.9,0-2.5,0.5c-0.6,0.5-0.7,1.4-1.6,1.4
		c-0.8-0.1-0.4-0.3-0.9-0.7c-0.3-0.3-0.8-0.3-1.2-0.4c-1.8-0.3-3.6,0.1-4.9,1.7c-0.1-0.4-0.3-0.9-0.7-1c-0.5,1-0.7,1.2-1.7,1.6
		c-0.8,0.3-1.5,0.9-2.3,0.9c-0.4,0.1-1.8-0.3-1.5,0.8c0.3,1,1.4-0.1,1.9,0c0.2,0.4,0,0.7,0.1,1.1c0.6-0.1,0.6-0.9,0.7-1.4
		c0.1,0.7-0.4,1.5-0.4,2.1c0.6-0.1,1.3-0.4,1.7,0.2c0.5,0.6-0.2,0.9-0.8,0.8c-0.5-0.1-0.8-0.6-1.3-0.6c-1.1,0-0.6,0.7-0.6,1.3
		c-0.5,0-1.1-0.1-1.4-0.5c-0.1,0.3-0.3,0.6-0.4,0.9c-0.1,0-0.2,0.1-0.3,0.1c-0.6-1.2-2.1-1.4-3.2-1.1c0.1,0.1,0.2,0.2,0.3,0.3
		c-1.1-0.5-1.7,0.7-2.7,0.7c-0.3,0-0.8-0.2-1.2-0.1c-0.6,0.1-1.1,0.3-1.5,0.5c-1.8,0.9-2.9,2.7-4.3,4.1c-1.2,1.3-3,2.7-3.3,4.6
		c-0.2,1.1,0.5,1.7,0.8,2.7c0.3,0.9,0.5,2.2,0.3,3.1c-0.1,0.9-0.5,1.7-0.5,2.6c0,1,0.1,2.1,0.2,3.1c0.2,1.8,0.5,4.3,1.5,5.7
		c0.5,0.7,1.3,1.1,1.9,1.6c0.6,0.6,1,1.2,1.6,1.8c0.7,0.6,1.3,1,1.7,1.7c0.5,0.7,0.7,1.5,1.5,1.8c1.2,0.4,2.5,0,3.7,0.4
		c0.5,0.2,0.8,0.6,1.3,0.7c0.7,0.1,1.3-0.5,1.8-0.7c1-0.4,1.9-1,2.9-1.5c0.5-0.2,1-0.6,1.5-0.9c0.8-0.3,0.9-0.1,1.4,0.4
		c0.4-0.4,0.9-0.7,1.4-1c0-0.4-0.4-0.5-0.5-0.8c1.2-0.1,1.6-2.9,1.6-3.8c0.1,0,0.2-0.1,0.3-0.1c0-0.5-0.3-0.9-0.4-1.4
		c-0.1-0.6-0.1-1,0.1-1.5c0.3-1.1,1-1.3,2-1.5c0.9-0.2,1.4-0.8,2.1-1.3s1.8-1,2.8-1.1c0.8-0.1,2.3-0.7,2.7,0.2
		c0.4,0.9-0.2,1.9-0.4,2.7c-0.3,1.2-0.1,1.8,0.2,3c0.2,0.8-0.1,1.9-0.2,2.8c0,0.4-0.1,1.1-0.3,1.5c-0.3-0.5-0.6-1.6-0.6-2.2
		c-0.4,0.1-0.5,0.7-0.4,1.1c0,0.5,0.1,0.4,0.3,0.8c0.4,0.8,0.2,1.4,0.4,2.3c0.3,1.4,1,3.7-0.7,4.4c-0.1,1,1.3,0.5,1.8,0.4
		c0.9-0.1,1.2-0.6,2-0.8c0.8-0.2,1.6,0.1,2.4-0.2c0.6-0.2,1.5-0.5,1.9-0.9c0.6-0.6,0.6-0.9,1.4-1.1c0.7-0.2,1.3-0.6,2-0.7
		c0.8-0.2,1.5,0.2,2.3,0.1c0.7,0,1.9-0.5,1.3,0.7c0.6-0.1,2.9-1,2.2,0.7c1.2,1.4,0.5,3,0.8,4.7c0.2,0.9,0.5,1.7,0.6,2.5
		s-0.2,1.8-0.1,2.7c0.2,1.2,1.8,3,3,3.6c1,0.5,4.5,0,4.2,1.7c0.3-0.1,0.7,0.1,0.9,0c0.3-0.1,0.7-0.3,1-0.4c0.7-0.2,1.1-0.4,1.7-0.9
		c0.5-0.4,0.8-0.7,1.3-1.2c0.3-0.4,0.6-1,1.1-1.3c0-0.1,0-0.1,0-0.2c0.9-0.5,1.5-1,2.3-1.3c1-0.3,2.1-0.8,3.1-0.8
		c0.9,0,2.1,0.3,2.8,0.9c0.5,0.4,0.3,0.4,0.6,1.1c0.2,0.5,0.8,0.8,0.8,1.4c-0.5,0.2-0.5,0.5-0.7,0.8c-0.2,0.2-0.4,0-0.6,0.3
		c-0.1,0.2,0.1,0.7,0.1,0.8c-1,0.5-2.8-0.9-2.5-1.9c0.3,0,0.4-0.2,0.5-0.3c-0.7-0.6-2.3-1-3.1-0.9c-0.6,0.1-0.8,0.3-1.3,0.7
		c-0.6,0.5-0.5,0.6-0.7,1.2c-0.3,0.7-1.8,1.8-1.3,2.6c0.3,0.5,1.2,0.1,1.1,0.9c-0.1,0.5-0.8,0.6-0.8,1.3c-1.2,0.3-1.1,0-1.9-0.6
		c-0.7-0.5-1.3,0.2-2.2-0.1c-0.9-0.3-1.5-0.4-2.5-0.1c-0.9,0.3-1.3,0.6-2.2,0.3c-0.6-0.2-0.6-0.4-1,0c-0.2,0.2-0.3,0.8-0.7,0.8
		c-0.5,0-0.5-1.7-1.1-2.1c-0.9-0.6-1.7,0.1-2.5-0.3c-0.4-0.2-0.5-0.6-0.9-0.7c-0.3-0.1-1.1,0.2-1.4,0.3c0.4,0.1,0.9,0.2,1,0.6
		c-0.6,0.1-0.7,0.4-1.2,0.4c-0.4,0-0.9-0.2-1.2-0.5c-0.8-0.7-0.5-1.9-0.9-2.9c-0.7,0.1-0.4-0.4-0.7-0.7c-0.3-0.2-0.7-0.1-1-0.2
		c-0.7-0.1-1.3-0.4-2-0.7c-1.2-0.5-3.6-0.6-3.6-2.1c0.3-0.1,0.7-0.1,1-0.2c-0.1-0.6-1-0.9-1.5-0.5c0.1,0.6-1.7,1.3-2.3,1.3
		c-0.9,0-1.7-0.5-2.7-0.3c-0.5,0.1-1,0.4-1.5,0.4c-0.4,0-0.9-0.3-1.4-0.3c-1-0.1-2,0.5-3,0.4c-1.8-0.1-3.6-1.1-5.2-1.9
		c-1.6-0.8-3.1-1.4-4.7-1.9c-0.9-0.3-1.2-0.3-2.2-0.2c-1,0.1-1,0.4-1.8,0.9c-1.2,0.8-2.9,1.9-4.3,1.8c-1.5-0.1-3.1,0.1-4.5-0.3
		c-0.6-0.2-1.4-0.6-2.1-0.6c-0.9-0.1-1.3,0-2.2-0.2c0.1,0,0.1,0.1,0.2,0.2L417.9,811.5z"/>
	<path class="st6" d="M480.8,679.5c-0.3,0.4-0.8,0.5-1.1,0.9c-0.3,0.4-0.3,0.9-0.8,1.2c-0.3,0.2-0.5-0.1-0.9,0.3
		c-0.2,0.2-0.3,0.6-0.5,0.8c-0.2,0.2-0.7,0.4-1,0.7c-0.2,0.3-0.6,0.4-0.8,0.7c-0.2-0.8-0.5-0.9-0.4-1.8c0.1-0.7,0.3-1.4,0.2-2
		c-0.8,1.5-1-1-1.2-1.7c-0.1-0.4,0-0.4-0.2-0.8c-0.1-0.2-0.3-0.4-0.4-0.5c-0.5-0.6-0.5-0.8-0.5-1.5c0.1-1.3-0.6-1.9-1-3.1
		c-0.2-0.7,0.1-3.3,0.8-3.6c0.1,0.5,0.2,1.2,0.2,1.6c0.7-0.8,0.6,0.7,0.7,1c0.1,0.2,0.4,0.4,0.5,0.7c0.1,0.3,0.1,0.7,0.2,1
		c0.9,0,0.8,1.4,0.9,2c0.5-0.4,0.3-1.5,0.5-2c0.2,0.1,0.4,0.2,0.7,0.3c0.2,0.4,0,0.9,0,1.3c0.5-0.1,0.9-0.5,1.3-0.7
		c0.2-0.1,0.5,0,0.7-0.3c0.1-0.2,0-0.5,0.1-0.7c0.5-0.8,1.6-0.8,2.4-1.2c0.2,0.4-0.2,1.1,0,1.4c0.3,0.4,1,0.1,1.3,0.1
		c0-0.4,0.1-0.9,0.5-0.9c0.7,0,0.4,0.6,0.3,1.1c-0.1,0.6-0.3,2.2,0.8,2.1c0-0.4-0.4-0.8-0.3-1.1c0.1-0.5,0.4-0.4,0.8-0.6
		c0.1,0.5,0.3,1,0.4,1.6c0.5-0.1,0.9-1.3,1.2-1.3c0.5,0,0.7,1.2,0.8,1.5c0.2,0.7,0.6,1.1-0.1,1.5c-0.5,0.3-1,0.1-1.2-0.6
		c-0.3,0.7,0.4,1.7-0.6,1.5c-1.1-0.2-0.4-1.2-0.6-1.8c-0.5,0-1-0.2-1.5-0.1c0,0.5,0.6,0.9,0.6,1.3c0,0.4-0.4,0.8-0.4,1.3
		c0,0.6,0.7,0.9,0.6,1.3c0,0.3-1.1,0.7-1.4,0.5c-0.9-0.6,0.9-2,0.4-2.7c-0.4-0.6-1.4,1.2-2.1,1.2L480.8,679.5z"/>
	<path class="st6" d="M382.3,641.4c-0.2,0.3-1,0.1-0.9,0.7c0,0.2,0.7,0.7,0.8,0.9c-0.5,0.7-2.8-1.2-2,1c0.2,0.6,0.6,1,0.7,1.8
		c0.1,0.5,0.3,1.6,0.1,2c-1.7-0.4-0.2-3.9-2.7-3.7c0.1,0.7,0.3,1.4-0.5,1.5c-1.2,0.2-0.5-0.8-0.1-1.3c-0.6-0.1-1.4,0-1.9,0.1
		c0,0.3-0.1,0.4-0.4,0.4c-0.2-0.4,0.1-1.3-0.2-1.7c-0.4-0.5-1.1,0.1-1.5,0.3c-0.8,0.4-1.9,0.7-2.4,1.5c-0.3,0.4-0.3,1-0.6,1.4
		c-0.4,0.6-0.8,0.4-0.3,1.1c0.7,1,1.8,0.6,2.8,0.9c0.2,0.8-1.4,1-1.9,1.2c-0.4,0.2-0.8,0.2-0.6,0.8c0.2,0.5,0.7,0.6,1.1,0.7
		c0.9,0.3,1.4,0,2.4,0c0.9,0,1.8,0.2,2.6,0.5c-0.5,0.9-1.6,0.3-2.4,0.3c-1.1-0.1-2,0.4-3,0.6c0.1,1.2,1.1,2.3,2.3,2.5
		c0.4,0.1,1.4,0,1.7,0.5c0.3,0.5-0.2,1.3,0.1,1.8c0.3,0.4,1.4,0.4,1.8,0.3c0.7,0,1.3-0.3,1.9-0.6c1.1-0.6,2.2-1.1,3.4-1.4
		c0-0.4,0-0.6,0-1c0.4-0.2,0.7,0.2,0.8,0.6c1-0.1,1.7-0.3,2.6,0.2c0.7,0.5,1.3,0.7,2.1,0.1c1.2-0.8-0.3-0.9-0.9-1.2
		c-1.2-0.8,0.3-0.9,0.9-0.9c0.2-0.1,0.2-0.1,0.6,0c0.6-0.8,1.2-2.1-0.2-2.5c-0.6-0.2-1.1,0-1.7-0.3c-0.4-0.2-1-0.5-1.3-0.8
		c-0.6-0.5-0.3-0.7-0.2-1.4c0.1-0.7-0.1-0.9-0.5-1.5c-0.8-0.9-1-2-1.1-3.3c0.5-0.3,1.2-1.4,0.6-1.9L382.3,641.4z"/>
	<path class="st6" d="M365.8,642.1c-0.3,0.2-0.7,0.6-0.6,1c-0.6,0.4-0.8,0.4-1.1,1.1c-0.2,0.5-0.5,1.2-0.2,1.6
		c0.1,0.2,0.5,0.2,0.7,0.3c0.2,0.2,0.3,0.6,0.4,0.8c0.2,0.5,0.4,1.1,0.7,1.6c0.5,0,0.8-0.4,1.4-0.5c0.6-0.1,0.7,0.2,1.3-0.2
		c0.5-0.3,0.7-0.4,0.8-1c0-0.5-0.4-1.1,0-1.6c0.2-0.2,0.6,0,0.8-0.2c0.3-0.2,0.2-0.3,0.4-0.5c0.3-0.3,0.6-0.7,0.9-0.9
		c0.4-0.2,1-0.4,1.4-0.6c0.4-0.2,0.8-0.5,1.3-0.7c0.1-0.8-0.7-1.6-1.3-2.1c-0.2-0.2-0.8-0.7-1-0.6c-0.4,0.1-0.2,0.6-0.8,0.6
		c-0.1-0.4-0.5-0.8-0.9-0.5c-0.6-1.8-2.4-0.5-3.6-0.7c-0.1,0.8,0.8,1,0.2,1.8L365.8,642.1z"/>
	<path class="st6" d="M387.8,645.6c-0.5-0.4-3.8-1.5-2.4-2.6c0.6-0.5,0.9,0.6,1.5,0.8c0.9,0.3,1.1-0.6,0.6-1.1
		c-0.3-0.4-1.3-0.5-1.4-1.1c-0.1-0.6,0.9-1.1,1.3-1.5c0.4-0.3,1-0.9,1.6-0.8c1,0.2,0.5,1.3,0.7,2c0.1-0.1,0.4-0.2,0.4-0.3
		c0.4,0.4-0.1,0.5-0.1,0.9c0,0.6-0.1,0.3,0.4,0.7c0.6,0.6,0.6,0.8,0.9,1.6c0.2,0.5,0.8,1.2,0.5,1.7c-0.3,0.6-1.2,0.6-1.7,0.3
		c0,0.5,0.4,0.8,0.2,1.3c-0.1,0.4-0.7,0.5-1,0.4c-0.5-0.2-0.5-0.7-0.7-1.1c-0.2-0.4-0.5-0.6-0.7-0.9L387.8,645.6z"/>
	<path class="st6" d="M391,610.8c0-0.1,0.1-0.2,0-0.1c-0.3,0.2-0.6,0.6-0.2,0.9c-0.6,0.2-0.6,0.3-0.7,0.9c-0.1,0.3-0.1,0.9,0,1.2
		c-0.5,0.2-1,0.1-1.5,0.2c0.3,1.3-1.4,2.3-1.7,3.4c1-0.1,1.5,0.1,1.9,1c0.7-0.2,0.9,0.2,0.8,0.8c0.3,0.1,0.5,0.1,0.7,0
		c0.1,0,0.2-0.3,0.4-0.3c0.2-0.1,0.3,0.1,0.4,0.1c0.5-0.2,1.1-0.5,1.5-0.8c1-0.7,0.4-1.7,1.1-2.7c0.1,0.7,0.5,1.6,0.2,2.2
		c-0.3,0.5-1.1,1.3-1.6,1.4c0.4,0.2,1.3,0,1.3,0.6c-0.5,0.2-0.5-0.2-0.9-0.3c-0.6-0.2-0.4-0.2-1,0.2c-0.5,0.3-0.5,0.2-0.4,0.8
		c0.1,0.4,0.3,0.9,0.4,1.4c0.4-1-2.5-1.9-3.1-2.2c-0.5-0.4-0.8-1.1-1.5-1.3c-0.9-0.3-1,0.8,0,1c-1,0.4-0.8,0.7-0.8,1.8
		c-0.1,0-0.1,0-0.2,0.1c0.1,0.6,0.2,2.3,1.1,2.1c0,0.9,0.7,0.7,1.3,0.4c0.5-0.2,0.7-0.7,1.3-0.2c-0.9,0.1-1.4,0.9-1.1,1.8
		c0.4,0.1,0.6,0.5,0.9,0.8c0.1-0.1,0.1-0.1,0.2-0.1c0.2,0.2,0.2,0.5,0.1,0.7c0.5-0.3,0.7,0,1.2,0.2c0.3-0.5,1-0.9,1.5-0.9
		c-0.2-1.1-0.9-2.4,0.5-3.1c-0.2,0.8-0.7,2.4-0.3,3.1c0.5,0,0.9-0.2,1.4-0.2c0.1,0.4,0.3,0.5,0.6,0.4c0.1,0.6,0.6,0.9,0.6,1.3
		c-0.1,0-0.4,0-0.5,0c0.2,0.4,0.6,0.5,0.9,0.7c-0.7-0.2-1.4-1.5-2.2-1.4c0,0.4-0.2,0.7-0.1,1c0.1,0.2,0.6,0.5,0.7,0.8
		c-0.2,0.2-0.2,0.2-0.1,0.5c-0.5,0.1-0.6,0.6-0.9,1c-0.1,0.2-0.3,0.3-0.4,0.5c-0.1,0.2,0,0.4-0.1,0.5c-0.4,0.3-0.8,0.1-1.2,0.2
		s-0.4,0.5-1,0.3c-0.5-1.4-2,0.1-2.7-0.1c-0.1,1.1,1.6,1.9,2.6,2c0.1-0.3,0.2-0.6,0.4-0.8c0.1,0,0.3,0,0.4,0.1
		c0.2,0.7,0.8,0.7,1.1,1.2c0.3,0.5,0,1.2,0.2,1.6c0.4,0.7,1,0.8,1.6,0.9c0.5,0.1,1.2,0.4,1.6,0.4c0.1-0.8,0-0.7,0.7-0.6
		c0.7,0.1,0.7,0.3,1.2-0.2c0.5-0.6,0.4-0.6,1.2-0.6c0.6,0,1,0.1,1.6-0.1c0.1-0.3,0.1-0.5-0.1-0.7c0.8-0.1,0.9,0.1,1.5-0.4
		c0.4-0.3,0.7-0.7,1-1.1c0.4-0.8,0-0.6-0.4-1.1c-0.5-0.6-0.5-0.8-1.3-1c-0.8-0.2-1-0.3-1.7,0.2c-0.1,0.1-0.2,0.4-0.4,0.6
		c-0.2,0.2-0.6,0.3-0.9,0.5c-0.5,0.5-0.6,0.7-1.3,0.9c-0.4,0.1-1.1,0.2-1.5,0c0,0.6-0.7,0.3-1,0.2c-0.4-0.2-1.1-0.2-1-0.9
		c1.1,0,0.3-1.1,0-1.3c0.4-0.1,0.9-0.3,1.3-0.2c0.5,0,0.8,0.3,1.2,0.3c0.9,0.1,1.1-1.1,1.8-1.1c0-0.5,0.5-0.3,0.8-0.5
		c0.7-0.4,0.1-0.6,0.9-0.3c0.5,0.2,0.4,0.5,0.9,0.2c0.5-0.2,0.6-1,0.6-1.4c0.1-0.6,0.3-0.4-0.2-0.9c-0.3-0.3-0.7-0.6-1.1-0.7
		c-0.5-0.2-2.4-0.1-2.5,0.4c1.4,0.6,3.2-2,1.8-2.7c0.1,0,0.3-0.1,0.4-0.1c0,0-0.1-0.2-0.1-0.2c0.6-0.1,0.7-1.4,0.5-1.9
		c-0.1,0-0.1,0-0.2,0c-0.1-0.4-0.2-0.4-0.5-0.4c0,0.3-0.1,0.5-0.1,0.7c-0.1-0.3-0.1-0.7-0.2-1c-0.2,0.1-0.5,0-0.7,0.1
		c0-0.7-0.4-0.9-1.1-0.7c-0.1-0.6,0.4-0.5,0.8-0.4c-0.1-0.2,0-0.5-0.1-0.6c0.5,0.2,0.6-0.5,0.6-0.9c0.2,0.1,0.4,0.1,0.5,0.1
		c0-0.3,0.1-0.7,0.1-0.9c-0.1-0.4-0.3-0.5-0.3-0.8c0.1-0.7,0.5-0.7,0.2-1.6c-0.4-0.9-1-2.6-0.4-3.5c-0.8,0-1,1.5-1.2,2
		c0.1-0.5,0.2-1,0.4-1.4c-0.4-0.2-0.8-0.1-1.2,0.2c0.1-0.8,1-0.8,1.3-1.4c0.4-0.6,0.2-2.3-0.6-2.4c0,0.1,0,0.2,0,0.2
		c-0.4-0.6-0.7-0.2-1.2-0.1c-0.3,0-0.5-0.2-0.8-0.1c-0.4,0.1-0.4,0.4-0.7,0.5c-0.3,0.1-0.4-0.2-0.6-0.1c-0.3,0.1-0.6,0.4-0.8,0.5
		c-0.1,0.1-0.5,0.1-0.7,0.3c-0.2,0.1-0.4,0.4-0.5,0.5L391,610.8z"/>
	<path class="st6" d="M412.7,666.6c-0.9,0.3-1.1-0.7-1-1.2c-0.7,0-1.5,0.5-2.1,0.7c-0.2-0.5,0.8-1.1,0.8-1.7c0-0.6-0.7-1.3-0.8-1.9
		c-0.2-0.6-1.5-3.7,0.1-3c0.2,0.3,0.2,1,0.6,1.1c0.4,0.1,0.9-0.5,0.9-0.8c0.2,0.1,0.6,0.2,0.8,0.2c0.3,0,0.4-0.3,0.8-0.3
		c0.6,0,1,0.5,1.5,0.7c0.5,0.2,1.1,0.1,1.5,0.3c0.7,0.4,0.4,0.9,0.5,1.5c0.6-0.2,0.5-0.8,1.4-0.5c0.6,0.2,0.9,0.7,0.7,1.4
		c-0.3,0.9-0.5,0.5-1.2,0.4c-0.4-0.1-0.3-0.2-0.7-0.1c-0.3,0.1-0.4,0.5-0.8,0.4c-0.2-1-0.5-1.2-1.5-0.9c-0.2,0.5,0.1,1.2-0.2,1.7
		c-0.2,0.6-0.9,0.8-0.6,1.5L412.7,666.6z"/>
	<path class="st6" d="M371.3,631.6c-0.4,1.5-2.7,1-2.4,2.9c0.3,0,0.7-0.1,1-0.1c0,0.4,0.1,0.8,0.5,0.7c0-0.2,0.1-0.4,0.2-0.5
		c0.1,0.3,0.4,0.5,0.6,0.5c0.2-0.4-0.1-0.8,0.1-1.2c0.7,0.3,0.3-0.9,0.9-0.6c0.1-0.3,0.1-0.6,0.4-0.7c0.2,0.4,0.1,0.8,0.1,1.1
		c0.7,0,2.3-1.5,1.4-2.1c0.4-0.4,0.4-0.9,0.2-1.5c-0.1,0-0.3-0.1-0.4-0.1c-0.1,0.1-0.2,0.3-0.3,0.3c0,0.2-0.1,0.3-0.2,0.5
		c-0.3-0.3-0.8-0.6-1.2-0.4c0,0.3-0.1,0.3-0.2,0.4L371.3,631.6z"/>
	<path class="st6" d="M378.5,638.4c-0.9,0-2.5,2.2-3.4,0.8c-0.6-1,0.9-1,1.4-1.1c0.3-0.1,1.3-0.5,1.1-1.1c-0.6,0.1-2.1,0.6-1.7-0.5
		c-1.2,0.1-1.2,1.7-2.5,0.9c-1-0.6-0.6-1.7,0.6-1.4c-0.1-0.4-0.7-0.3-0.7-0.7c0.3-0.1,0.8-0.1,1.1-0.2c-0.1-0.2-0.2-0.4-0.2-0.7
		c0.1,0,0.3-0.1,0.5-0.1c-0.1-0.1-0.2-0.4-0.3-0.6c0.3,0,0.5,0,0.7,0c0-0.1,0-0.2,0-0.4c0.6-0.1,0.5,0.9,0.6,1.3
		c0.6,0.1,0.8-0.5,1.2,0.1c0.3,0.4-0.1,1.1,0.7,1c0,0.9,1.6,1.2,2.1,0.5c0.6-0.7-1.8-0.8-0.4-1.5c-0.3-0.4-1.4-0.3-0.9-1.1
		c0.3-0.5,1.3-0.3,1.4-1c0.1,0.6-0.3,2.3,0.6,2.3c-0.1,0.1-0.1,0.3-0.2,0.4c0.4-0.3,0.8-0.3,1.3-0.2c0,0,0.1-0.3,0.1-0.2
		c0.1,0.1,0.1,0.2,0.1,0.4c-0.3,0.1-0.6,0.2-0.8,0.5c0.1,0.1,0.3,0.3,0.4,0.4c-0.1-0.4,0-0.7,0.2-1c1.2,0.2,1.1,1.6,0.8,2.5
		c-0.4,0.2-0.9,0.6-1.3,0.6c-0.6,0.1-1.1-0.3-1.7-0.1L378.5,638.4z"/>
	<path class="st6" d="M382.9,625.1c0-0.1,0-0.2-0.1-0.4c-0.5-0.2-2.4-0.2-1.7,0.7c0.5,0.6,1.9,0,1.8,1.2c-0.3,0.1-0.7,0.1-1,0.2
		c0,1.5,2.1-0.4,2,1.1c-0.3,0.1-0.5,0.2-0.5,0.5c0.4,0,0.8-0.4,1.1-0.3c0.4,0.1,0.4,0.5,0.7,0.8c0.7,0.7,1.4,0.1,1-0.9
		c-0.2-0.4-0.6-0.5-0.9-0.8c-0.5-0.4-0.3-0.3-0.5-0.8c-0.1-0.4-1-1.6-1.5-0.8L382.9,625.1z"/>
	<path class="st6" d="M387.4,637c-0.1,0-0.1-0.1-0.2-0.1c-0.5,0.5-1.3,0.2-1.3-0.6c0-0.5,0.6-1,0.6-1.4c-0.7-0.1-1.4,0.5-2.1,0.6
		c-0.1-0.2-0.1-0.5-0.1-0.7c0.2,0,0.3-0.1,0.5,0c-0.3-0.3-1.2,0.1-1.4-0.5c-0.4,0-0.3-0.1-0.4-0.3c0.1,0,0.1,0,0.2-0.1
		c-0.5-0.4-1.1-1.4,0-1.3c0.9,0.1,0.7,1.7,1.7,0.9c-0.1-0.1,0-0.3-0.2-0.5c0.3-0.2,0.6,0.1,0.7,0.4c0-0.1,0-0.2,0-0.4
		c0.4,0.1,0.6,0.2,0.7,0.5c-0.4-0.3-0.6-1-1-1.3c0.4-0.1,0.9-0.3,1.3-0.1c0-0.1,0-0.2,0-0.2c0.1,0.1,0.4,0.2,0.5,0.4
		c0,0,0.1-0.1,0.1-0.2c0.9-0.4,1.2,1.9,1.3,2.5c0-0.1,0-0.1,0-0.2c0.1,0.1,0.2,0.4,0.2,0.7c0.9,0,1.1-0.8,2.1-0.4
		c0.6,0.2,1.6,0.9,1.9,1.5c0.8,1.4-1,1.1-1.8,0.8c-0.8-0.4-1.2-1-1.1-1.8c-0.4,0.1-0.2,0.7-0.5,0.8c-0.2,0.1-0.7,0-0.9-0.1
		c0.1,0.2,0.3,0.5,0.5,0.6c-0.1,0.1-0.3,0.2-0.5,0.2L387.4,637z"/>
	<path class="st6" d="M416.6,650.5c-1.8-0.8-0.7-4.2,0.9-2.9c0.3,0.2,0.2,0.8,0.4,1.1c0.2,0.3,0.5,0.6,0.5,1c0.1,0.6-1,1.9-1.4,0.9
		c-0.1,0-0.2,0-0.2,0L416.6,650.5z"/>
	<path class="st6" d="M468.6,684.4c-0.3,0.3-0.9,0.5-1.3,0.6c-0.7,0.1-0.8-0.1-1.4-0.3c-0.4-0.1-2.7,0.3-1.6-0.9
		c0.6-0.6,2.3-0.6,3.1-0.8c0.5-0.2,0.8-0.4,1.4-0.3c0.5,0.1,0.7,0.6,1.2,0.7c0,0.3-0.3,0.5-0.5,0.7L468.6,684.4z"/>
	<path class="st6" d="M463.5,674.3c-0.2-0.1-0.4-0.2-0.5-0.2c0,0.2-0.1,0.3-0.1,0.5c-0.1-0.4-0.5-0.5-0.8-0.5
		c-0.1,0.1-0.3,0.3-0.3,0.3c0-0.1-0.1-0.2-0.1-0.3c-0.1,0-0.2,0-0.4,0c-0.1-0.1-0.1-0.4-0.1-0.6c0.1,0,0.2-0.1,0.3-0.1
		c-0.1-0.4-0.5-0.6-0.6-1.1c0.9-0.2,1.9-1.4,2.1,0.1c0.3-0.3,0.7-0.9,1-1c0.4-0.2,1.2-0.2,1.8-0.3c0.5-0.1,1.6-0.5,1.4,0.5
		c-0.1,0.7-1.1,0.7-1.5,0.4c-0.1,0-0.4,0.2-0.4,0.3c0,0.3,0.1,0.4,0.5,0.5c-0.7,0.3-0.4,0.6-0.2,1.2c-0.3,0.2-0.7,0.1-1,0
		c-0.2,0.3-0.2,0.2-0.4,0.3c-0.1-0.1-0.1-0.1-0.1-0.2L463.5,674.3z"/>
	<rect x="290.9" y="608.5" class="st7" width="201.3" height="213.8"/>
	<polygon class="st8" points="349,737.6 357.7,736.5 357,746.8 369.9,758.8 371.2,761 370.1,762.2 370.3,763.6 369.8,764.3 
		370,765.7 370.5,766.2 370,766.8 367.2,767.5 365.2,767.8 363.6,765.2 362,764 361.4,764 360.8,762.9 359.9,763.1 359.4,762.4 
		358.5,762 357.2,762.1 356,761.7 355.2,758.4 352.9,755.9 353.3,754.2 353,753.5 352.1,753.6 351.9,752.6 352.9,752.3 352.4,751.2 
		353.4,749.6 352.5,749.5 351,749.7 350.6,750.4 350.4,748.6 349.4,747.8 349.2,746.1 349.5,744.5 348.1,742.7 348.9,740.7 
		349.2,739.8 349.2,739.1 	"/>
	<path class="st9" d="M347.9,735.2"/>
	<path class="st9" d="M371.5,769.1"/>
	<path class="st9" d="M350.6,750.4"/>
	<polygon class="st0" points="350.2,750.9 350.9,750.6 351.2,750 352.5,749.8 352.9,749.8 352.1,751.2 352.5,752.1 350.9,752.5 	"/>
	<path class="st0" d="M348.1,754.5"/>
	<rect x="345.5" y="735.2" class="st10" width="27.2" height="33.9"/>
</g>
</svg>
